<svg height="240" preserveAspectRatio="xMidYMid meet" viewBox="0 0 640 640" width="240" xmlns="http://www.w3.org/2000/svg" xmlns:xlink="http://www.w3.org/1999/xlink"><defs><path id="a" d="m387.3 93.95c1.87 0 3.64-1.16 4.34-3.05.54-1.42 4.8-12.8 5.33-14.22.92-2.44-.29-5.18-2.68-6.11-2.4-.94-5.09.29-6 2.73-.53 1.43-4.8 12.8-5.33 14.23-.92 2.44.29 5.18 2.69 6.11.54.21 1.1.31 1.65.31z"/><path id="b" d="m253.95 432.16c-.53 1.43-4.79 12.8-5.33 14.23-.91 2.44.29 5.18 2.69 6.11.54.21 1.1.31 1.66.31 1.87 0 3.63-1.16 4.34-3.05.53-1.42 4.79-12.8 5.32-14.22.92-2.44-.28-5.18-2.68-6.12-2.4-.93-5.09.3-6 2.74z"/><path id="c" d="m493.56 322.84c-2.4-.94-5.09.3-6 2.74-.92 2.44.29 5.18 2.68 6.11 1.4.55 12.57 4.89 13.96 5.43.55.21 1.11.31 1.66.31 1.87 0 3.64-1.16 4.34-3.05.92-2.44-.28-5.18-2.68-6.11-2.79-1.09-12.57-4.89-13.96-5.43z"/><path id="d" d="m158.04 197.49c.91-2.45-.29-5.18-2.69-6.12-1.4-.54-12.56-4.88-13.96-5.42-2.4-.94-5.08.29-6 2.73-.91 2.45.29 5.19 2.69 6.12 1.39.54 12.56 4.88 13.96 5.42.54.22 1.1.31 1.65.31 1.88 0 3.64-1.16 4.35-3.04z"/><path id="e" d="m503.52 184.27c2.34-1.07 3.39-3.87 2.34-6.26s-3.8-3.45-6.14-2.39c-1.36.62-12.27 5.6-13.64 6.22-2.34 1.07-3.39 3.87-2.34 6.26.77 1.76 2.47 2.8 4.25 2.8.63 0 1.28-.13 1.89-.41 2.73-1.25 12.28-5.6 13.64-6.22z"/><path id="f" d="m142.07 338.8c-2.34 1.07-3.39 3.87-2.34 6.26.77 1.76 2.47 2.8 4.25 2.8.63 0 1.28-.14 1.89-.41 1.37-.63 12.28-5.6 13.64-6.22 2.34-1.07 3.39-3.88 2.34-6.26-1.05-2.4-3.8-3.45-6.14-2.39-2.73 1.24-12.27 5.6-13.64 6.22z"/><path id="g" d="m401 427.92c-1.05-2.39-3.8-3.44-6.14-2.39-2.34 1.08-3.39 3.88-2.34 6.27.61 1.39 5.49 12.5 6.1 13.89.78 1.76 2.47 2.8 4.25 2.8.63 0 1.28-.13 1.89-.41 2.35-1.07 3.39-3.87 2.35-6.26-1.23-2.78-4.89-11.12-6.11-13.9z"/><path id="h" d="m244.6 95.14c.77 1.76 2.46 2.8 4.24 2.8.64 0 1.28-.13 1.9-.41 2.34-1.07 3.39-3.87 2.34-6.26-.61-1.39-5.5-12.51-6.11-13.9-1.05-2.38-3.8-3.44-6.14-2.38-2.34 1.07-3.39 3.87-2.34 6.26 1.22 2.78 4.88 11.12 6.11 13.89z"/><path id="i" d="m322.8 246.81c-7.98 0-14.45 6.59-14.45 14.72s6.47 14.72 14.45 14.72 14.44-6.59 14.44-14.72-6.46-14.72-14.44-14.72z"/><path id="j" d="m322.8 159.02c-83.17 0-129.7 45.2-152.05 76.69 34.31-17.05 92.35-40.52 152.05-40.52s117.74 23.47 152.04 40.53c-22.34-31.49-68.87-76.7-152.04-76.7z"/><path id="k" d="m322.8 364.05c83.17 0 129.7-45.21 152.04-76.7-34.3 17.05-92.34 40.52-152.04 40.52-59.71 0-117.74-23.47-152.05-40.52 22.34 31.49 68.87 76.7 152.05 76.7z"/><path id="l" d="m409.03 292.62c30.78-10.02 56.62-22.79 71.86-31.08-15.25-8.29-41.1-21.04-71.85-31.07 3.44 9.95 5.36 20.44 5.36 31.06 0 10.63-1.92 21.14-5.37 31.09z"/><path id="m" d="m236.54 230.45c-30.76 10.03-56.6 22.79-71.84 31.08 15.23 8.27 41.02 21 71.71 31.01-3.44-9.9-5.21-20.28-5.21-31.01 0-10.62 1.9-21.13 5.34-31.08z"/><path id="n" d="m326.39 215.33 1.79.04 1.79.05 1.8.07 1.79.09 1.79.09 1.79.12 1.79.12 1.78.14 1.79.16 1.78.16 1.78.18 1.78.19 1.78.21 1.77.22 1.77.23 1.77.24 1.76.25 1.77.27 1.75.28 1.76.29 1.75.29 1.75.31 1.74.32 1.74.34 1.73.34 1.73.35 1.73.36 1.72.37 1.71.38 1.71.38 1.7.4 1.7.4 1.7.42 1.68.42 1.68.43 1.68.44 1.66.44 1.66.45.41.84.4.83.39.85.38.85.37.85.36.85.35.87.34.86.33.87.32.87.31.88.3.87.3.89.28.88.27.89.26.9.25.89.24.9.23.9.22.91.22.9.2.91.18.91.18.92.17.92.16.92.15.92.14.92.12.92.12.93.1.93.1.93.08.93.07.93.06.94.05.93.04.94.03.94.02.93v.94.94l-.02.94-.03.94-.04.93-.05.94-.06.93-.07.94-.08.93-.1.93-.1.93-.12.93-.13.92-.13.92-.15.93-.16.91-.17.92-.18.92-.19.91-.2.91-.21.91-.22.9-.23.9-.24.9-.25.9-.26.89-.28.89-.28.89-.29.88-.3.88-.31.88-.33.87-.33.87-.34.86-.35.87-.36.85-.37.85-.38.85-.39.85-.4.84-.4.83-1.66.45-1.67.45-1.67.43-1.68.43-1.69.42-1.69.41-1.69.41-1.71.39-1.71.39-1.71.38-1.72.37-1.72.36-1.73.35-1.74.34-1.73.33-1.75.32-1.74.31-1.75.29-1.76.29-1.75.28-1.77.26-1.76.26-1.77.24-1.77.23-1.77.22-1.78.2-1.78.19-1.78.18-1.78.17-1.79.15-1.79.14-1.78.13-1.79.11-1.8.1-1.79.08-1.79.07-1.8.05-1.79.04-1.8.02-1.79.01-1.8-.01-1.8-.02-1.8-.04-1.8-.05-1.8-.07-1.8-.09-1.79-.09-1.8-.12-1.79-.12-1.79-.14-1.79-.16-1.79-.17-1.79-.18-1.78-.19-1.78-.21-1.78-.22-1.78-.23-1.77-.24-1.77-.26-1.77-.26-1.76-.28-1.76-.29-1.76-.3-1.75-.31-1.75-.33-1.74-.33-1.74-.34-1.74-.35-1.72-.36-1.73-.38-1.72-.38-1.71-.39-1.71-.39-1.7-.41-1.7-.42-1.69-.42-1.69-.43-1.67-.44-1.68-.45-1.66-.45v-.01h-.01v-.01-.01-.01l-.01-.01v-.01-.01-.03l-.01-.01v-.01-.01-.01l-.01-.01v-.01l-.41-.84-.4-.84-.38-.85-.38-.85-.36-.85-.36-.85-.34-.86-.34-.86-.32-.86-.31-.87-.31-.87-.29-.87-.29-.87-.27-.88-.26-.88-.26-.89-.24-.88-.23-.89-.22-.89-.22-.9-.2-.89-.19-.9-.18-.91-.17-.9-.16-.91-.15-.91-.14-.91-.13-.92-.12-.91-.11-.92-.1-.92-.09-.93-.07-.92-.07-.93-.06-.93-.04-.93-.04-.94-.03-.94-.01-.94-.01-.94.01-.94.01-.93.03-.94.04-.94.05-.93.06-.94.07-.93.09-.93.09-.93.1-.93.12-.93.13-.93.13-.92.15-.92.16-.92.17-.92.17-.91.19-.92.2-.91.21-.9.22-.91.23-.9.24-.9.25-.9.27-.89.27-.89.28-.89.29-.88.3-.88.31-.87.32-.88.33-.86.34-.87.35-.86.36-.86.37-.85.38-.85.39-.84.4-.84.4-.83 1.66-.45 1.67-.45 1.67-.43 1.68-.43 1.69-.42 1.69-.42 1.7-.4 1.7-.4 1.71-.38 1.72-.38 1.71-.37 1.73-.36 1.73-.35 1.73-.34 1.74-.33 1.74-.32 1.75-.31 1.75-.3 1.76-.29 1.76-.27 1.76-.27 1.76-.25 1.77-.24 1.77-.23 1.78-.22 1.78-.21 1.77-.19 1.79-.18 1.78-.17 1.79-.15 1.78-.14 1.79-.12 1.79-.12 1.8-.09 1.79-.09 1.79-.07 1.8-.05 1.79-.04 1.8-.02 1.8-.01 1.79.01zm-6.39 11.49-1.38.14-1.36.2-1.34.25-1.33.3-1.3.36-1.28.41-1.27.46-1.23.5-1.22.55-1.19.6-1.16.65-1.13.69-1.11.73-1.08.77-1.04.81-1.01.85-.98.9-.95.92-.91.97-.87 1-.84 1.03-.8 1.06-.76 1.1-.71 1.13-.68 1.15-.63 1.19-.59 1.21-.54 1.24-.5 1.26-.45 1.28-.4 1.31-.35 1.33-.3 1.35-.24 1.37-.2 1.39-.14 1.4-.08 1.42-.03 1.43.03 1.44.08 1.42.14 1.4.2 1.39.24 1.36.3 1.35.35 1.33.4 1.31.45 1.29.5 1.26.54 1.23.59 1.22.63 1.18.68 1.16.71 1.12.76 1.1.8 1.06.84 1.04.87 1 .91.96.95.93.98.89 1.01.85 1.04.81 1.08.78 1.11.73 1.13.68 1.16.65 1.19.6 1.22.55 1.23.51 1.27.45 1.28.41 1.3.36 1.33.3 1.34.26 1.36.19 1.38.15 1.39.08 1.41.03 1.4-.03 1.4-.08 1.37-.15 1.36-.19 1.35-.26 1.32-.3 1.31-.36 1.28-.41 1.26-.45 1.24-.51 1.21-.55 1.19-.6 1.16-.65 1.14-.68 1.1-.73 1.08-.78 1.05-.81 1.01-.85.98-.89.94-.93.92-.96.87-1 .84-1.04.79-1.06.76-1.1.72-1.12.67-1.16.64-1.18.58-1.22.55-1.23.49-1.26.45-1.29.4-1.31.35-1.33.3-1.35.25-1.36.19-1.39.14-1.4.09-1.42.03-1.44-.03-1.43-.09-1.42-.14-1.4-.19-1.39-.25-1.37-.3-1.35-.35-1.33-.4-1.31-.45-1.28-.49-1.26-.55-1.24-.58-1.21-.64-1.19-.67-1.15-.72-1.13-.76-1.1-.79-1.06-.84-1.03-.87-1-.92-.97-.94-.92-.98-.9-1.01-.85-1.05-.81-1.08-.77-1.1-.73-1.14-.69-1.16-.65-1.19-.6-1.21-.55-1.24-.5-1.26-.46-1.28-.41-1.31-.36-1.32-.3-1.35-.25-1.36-.2-1.37-.14-1.4-.09-1.4-.03-1.41.03z"/></defs><use xlink:href="#a"/><use fill="none" xlink:href="#a"/><use xlink:href="#b"/><use fill="none" xlink:href="#b"/><use xlink:href="#c"/><use fill="none" xlink:href="#c"/><use xlink:href="#d"/><use fill="none" xlink:href="#d"/><use xlink:href="#e"/><use fill="none" xlink:href="#e"/><use xlink:href="#f"/><use fill="none" xlink:href="#f"/><use xlink:href="#g"/><use fill="none" xlink:href="#g"/><use xlink:href="#h"/><use fill="none" xlink:href="#h"/><use xlink:href="#i"/><use fill="none" xlink:href="#i"/><use xlink:href="#j"/><use fill="none" xlink:href="#j"/><use xlink:href="#k"/><use fill="none" xlink:href="#k"/><use xlink:href="#l"/><use fill="none" xlink:href="#l"/><use xlink:href="#m"/><use fill="none" xlink:href="#m"/><use xlink:href="#n"/><use fill="none" xlink:href="#n"/></svg>